<svg xmlns="http://www.w3.org/2000/svg" viewBox="0 0 100 100">
  <!-- 圆形背景 -->
  <circle cx="50" cy="50" r="45" fill="none" stroke="#8A2BE2" stroke-width="3"/>
  
  <!-- 仙宠主体 - 类似凤凰的形状 -->
  <path d="M50,30 C65,25 75,40 70,55 C80,60 75,70 65,75 C60,85 40,85 35,75 C25,70 20,60 30,55 C25,40 35,25 50,30 Z" fill="#FFD700"/>
  
  <!-- 仙宠头部 -->
  <circle cx="50" cy="35" r="7" fill="#FFC0CB"/>
  
  <!-- 仙宠眼睛 -->
  <circle cx="47" cy="33" r="2" fill="#000000"/>
  <circle cx="53" cy="33" r="2" fill="#000000"/>
  
  <!-- 仙宠嘴 -->
  <path d="M47,38 Q50,41 53,38" fill="none" stroke="#000000" stroke-width="1"/>
  
  <!-- 仙宠装饰 -->
  <path d="M50,25 C45,30 40,35 43,35" fill="none" stroke="#FF6347" stroke-width="2"/>
  <path d="M50,25 C55,30 60,35 57,35" fill="none" stroke="#FF6347" stroke-width="2"/>
  
  <!-- 仙宠周围特效 -->
  <circle cx="25" cy="50" r="3" fill="#FFA500"/>
  <circle cx="75" cy="50" r="3" fill="#FFA500"/>
  <circle cx="50" cy="25" r="3" fill="#FFA500"/>
  <circle cx="50" cy="75" r="3" fill="#FFA500"/>
</svg>